<?xml version="1.0" encoding="UTF-8"?>
<!-- Generator: Adobe Illustrator 16.0.0, SVG Export Plug-In . SVG Version: 6.00 Build 0)  -->
<!DOCTYPE svg PUBLIC "-//W3C//DTD SVG 1.1//EN" "http://www.w3.org/Graphics/SVG/1.1/DTD/svg11.dtd">
<svg version="1.1" id="Layer_1" xmlns="http://www.w3.org/2000/svg" xmlns:xlink="http://www.w3.org/1999/xlink" x="0px" y="0px" width="1000px" height="288.031px" viewBox="-202.36 276.93 1000 288.031" enable-background="new -202.36 276.93 1000 288.031" xml:space="preserve">
<g>
	<path d="M85.87,420.646c0.109,79.593-64.323,144.203-143.917,144.315c-0.066,0-0.133,0-0.199,0   c-79.529-0.156-143.96-64.587-144.114-144.116c0.264-79.451,64.664-143.761,144.114-143.915   c79.593,0,144.116,64.522,144.116,144.115l0,0V420.646z M77.182,420.646c-11.287-24.88-29.49-45.99-52.441-60.81   c-24.427-16.714-53.389-25.544-82.986-25.3c-29.719-0.219-58.799,8.604-83.387,25.3c-22.774,14.912-40.826,36.004-52.042,60.81   c11.257,24.872,29.293,46.071,52.042,61.167c24.67,16.477,53.722,25.167,83.387,24.942c29.546,0.256,58.478-8.439,82.986-24.942   C47.666,466.807,65.854,445.595,77.182,420.646z M18.417,420.646c0.018,42.227-34.2,76.476-76.428,76.494   c-20.301,0.01-39.769-8.053-54.119-22.411c-29.847-29.849-29.847-78.241,0-108.087c29.849-29.848,78.241-29.848,108.087,0   C10.625,380.738,18.763,400.304,18.417,420.646z"/>
	<path d="M111.531,420.646c0-74.421,61.367-135.79,141.394-135.79c42.588-0.206,82.969,18.938,109.768,52.042l-37.031,37.23   c0,0-26.02-37.19-72.537-37.19c-46.23,0-83.706,37.478-83.706,83.708s37.476,83.706,83.706,83.706   c48.359,0,74.42-37.188,74.42-37.188l37.189,37.188c-27.329,33.45-68.419,52.61-111.609,52.042   C172.899,556.474,111.531,495.064,111.531,420.646L111.531,420.646z"/>
	<path d="M385.39,290.42h109.768c52.042,0,83.706,31.625,83.706,68.855c0.311,23.499-13.674,44.834-35.348,53.924   c0,0,48.359,13.049,48.359,63.25c0,40.951-33.468,74.419-89.272,74.419H385.39V290.42z M491.433,390.901   c18.615,0,29.744-11.169,29.744-26.061c0-14.893-11.129-26.062-29.744-26.062h-50.238v52.041L491.433,390.901z M498.881,502.511   c22.296,0,35.348-13.012,35.348-31.627s-13.052-31.623-35.348-31.623h-57.687v63.25H498.881z"/>
	<path d="M598.601,515.521l37.189-37.192c15.596,17.594,37.901,27.772,61.408,28.023c29.744,0,42.796-13.009,42.796-29.782   c0-44.638-130.265-24.02-130.265-115.333c0-40.914,35.348-76.062,94.914-76.062c57.646,0,87.431,35.349,87.431,35.349   l-37.229,37.19c-12.415-13.709-29.872-21.773-48.359-22.339c-28.022,0-39.069,11.169-39.069,26.061   c0,44.635,130.224,24.019,130.224,115.333c0,42.794-37.188,80.064-98.6,80.064C632.066,556.474,598.601,515.521,598.601,515.521z"/>
</g>
<path fill="none" d="M0,268.309H595.28v305.272H0V268.309z"/>
</svg>