<?xml version="1.0" encoding="UTF-8"?>
<!-- Generator: Adobe Illustrator 16.0.0, SVG Export Plug-In . SVG Version: 6.00 Build 0)  -->
<!DOCTYPE svg PUBLIC "-//W3C//DTD SVG 1.1//EN" "http://www.w3.org/Graphics/SVG/1.1/DTD/svg11.dtd">
<svg version="1.1" id="svg3100" xmlns:dc="http://purl.org/dc/elements/1.1/" xmlns:cc="http://creativecommons.org/ns#" xmlns:rdf="http://www.w3.org/1999/02/22-rdf-syntax-ns#" xmlns:svg="http://www.w3.org/2000/svg" xmlns:sodipodi="http://sodipodi.sourceforge.net/DTD/sodipodi-0.dtd" xmlns:inkscape="http://www.inkscape.org/namespaces/inkscape" xmlns="http://www.w3.org/2000/svg" xmlns:xlink="http://www.w3.org/1999/xlink" x="0px" y="0px" width="567.187px" height="334.571px" viewBox="-87.593 -164.5 567.187 334.571" enable-background="new -87.593 -164.5 567.187 334.571" xml:space="preserve">
<g>
	<path id="path3113" fill="#FFFFFF" d="M195.981-121.234   c-8.843-22.077-30.384-45.92-70.726-42.645c-51.391,5.587-67.407,54.837-59.64,84.219c-20.468-13.86-55.272-19.955-85.651,6.067   C-59.259-34.274-38.28,18.899-16.717,31.654c-23.764-2.201-61.321,13.857-69.63,55.861c-8.839,52.152,30.918,82.555,69.63,82.555   h429.281c44.766,0,69.604-38.727,66.817-75.25c-4.392-47.667-48.011-65.956-71.804-62.038   c19.879-11.09,46.429-63.189,6.059-104.146c-32.045-30.481-72.898-19.391-87.262-6.096c7.744-25.463-4.953-78.098-56.929-86.424   c-3.593-0.401-7.052-0.617-10.349-0.617C219.42-164.496,201.58-135.493,195.981-121.234"/>
	<path id="path3115" fill="#F37021" d="M-12.886-65.294C-35.551-44.777-43.8,1.711-2.943,28.887   L160.05,140.712L81.019-40.346C64.459-83.072,19.155-92.389-12.886-65.294"/>
	<path id="path3117" fill="#CC004C" d="M127.419-153.324   c-26.494,0.539-66.278,32.09-48.573,80.268l81.738,192.771l28.722-202.759C195.953-133.425,157.826-156.681,127.419-153.324"/>
	<path id="path3119" fill="#6460AA" d="M202.063-90.776h15.455c0,0,8.254,0,9.377,3.893   c-6.082,4.967-22.637,5.589-20.44,32.121l25.983,174.45L313.618-73.59c16.605-43.155-18.249-79.196-49.167-80.298   c-1.443-0.104-2.893-0.188-4.392-0.188C232.308-154.076,200.508-133.908,202.063-90.776"/>
	<path id="path3121" fill="#0089D0" d="M310.35-38.705l-76.784,178.886L396.512,27.766   c37.561-26.642,31.503-69.236,10.478-90.289c-8.815-9.909-24.999-17.564-42.144-17.564   C344.592-80.091,322.916-69.347,310.35-38.705"/>
	<path id="path3123" fill="#0DB14B" d="M378.268,53.22L225.242,160.107H413.66   c38.656,0,63.498-39.859,52.454-76.434c-7.396-22.989-29.279-41.036-54.678-41.062C400.746,42.615,389.408,45.836,378.268,53.22"/>
	<path id="path3125" fill="#FCB711" d="M-17.278,160.107H168.36L15.297,53.22   c-35.361-22.72-75.123-9.426-89.477,28.276C-86.347,124.656-55.968,160.107-17.278,160.107"/>
</g>
</svg>
